<?xml version="1.0" standalone="no"?>
<!DOCTYPE svg PUBLIC "-//W3C//DTD SVG 20010904//EN"
 "http://www.w3.org/TR/2001/REC-SVG-20010904/DTD/svg10.dtd">
<svg version="1.0" xmlns="http://www.w3.org/2000/svg"
 width="300.000000pt" height="300.000000pt" viewBox="0 0 300.000000 300.000000"
 preserveAspectRatio="xMidYMid meet">
<metadata>
Created by potrace 1.11, written by Peter Selinger 2001-2013
</metadata>
<g transform="translate(0.000000,300.000000) scale(0.100000,-0.100000)"
fill="#000000" stroke="none">
<path d="M130 1500 l0 -1030 1375 0 1375 0 0 1030 0 1030 -1375 0 -1375 0 0
-1030z m2657 937 c8 -9 12 -1876 3 -1878 -16 -4 -2570 -3 -2571 1 -3 12 -5
1866 -2 1875 4 12 2557 14 2570 2z"/>
<path d="M620 1950 l0 -41 43 2 c23 1 53 1 67 0 l25 -1 0 -420 0 -420 -67 0
-68 0 0 -38 0 -38 180 0 180 0 0 38 0 37 -67 3 -68 3 0 195 0 195 303 2 302 1
0 -198 0 -199 -67 -3 -68 -3 0 -35 -1 -36 171 1 c93 0 175 3 182 8 6 4 10 20
9 35 -3 26 -5 27 -70 30 l-66 3 0 422 0 422 67 0 67 0 1 35 0 35 -180 0 -180
0 0 -36 -1 -35 66 0 65 1 3 -183 c1 -100 -1 -182 -5 -183 -29 -4 -586 -3 -591
1 -12 8 -9 360 3 361 5 1 36 1 68 1 l57 -1 0 40 0 39 -180 0 -180 0 0 -40z"/>
<path d="M2010 1951 l0 -38 48 -1 c97 0 87 19 85 -164 -1 -90 -2 -172 -2 -183
-1 -19 -8 -20 -248 -20 l-246 0 -3 -37 -4 -38 73 -1 c39 0 152 -1 251 -2 l178
-2 0 -175 c0 -96 0 -185 -1 -197 -1 -21 -6 -23 -66 -23 -36 0 -65 -4 -66 -10
-1 -5 -1 -19 -1 -30 0 -11 0 -24 1 -28 1 -5 81 -8 179 -8 l177 1 3 38 3 37
-69 0 -70 0 0 420 c0 307 3 420 12 421 6 1 36 2 66 3 l55 1 3 38 3 37 -180 0
-181 0 0 -39z"/>
</g>
</svg>
