<?xml version="1.0" encoding="UTF-8"?>
<svg width="170px" height="112px" viewBox="0 0 170 112" version="1.1" xmlns="http://www.w3.org/2000/svg" xmlns:xlink="http://www.w3.org/1999/xlink">
    <!-- Generator: Sketch 47.1 (45422) - http://www.bohemiancoding.com/sketch -->
    <title>Combined Shape</title>
    <desc>Created with Sketch.</desc>
    <defs></defs>
    <g id="Page-1" stroke="none" stroke-width="1" fill="none" fill-rule="evenodd">
        <path d="M104.1,45.989645 L104.1,12.8 L104.1,0.1 L78.5,0.1 L78.5,12.8 L89.7,12.8 L89.7,46.6 L25.1,46.6 L25.1,12.8 L36.3,12.8 L36.3,0.1 L0.1,0.1 L0.1,12.8 L10.7,12.8 L10.7,99.1 L0.1,99.1 L0.1,111.8 L36.3,111.8 L36.3,99.1 L25.1,99.1 L25.1,59 L89.7,59 L89.7,99.1 L78.5,99.1 L78.5,111.8 L114.7,111.8 L114.7,99.1 L104.1,99.1 L104.1,58.5295196 C105.523534,57.4556982 107.673193,55.5990697 110.305664,54.0299871 C112.64809,52.633786 115.554609,51.5087584 116.921875,50.9467773 C120.121875,49.5239974 123.645703,49.1362305 126.845703,49.1362305 C132.345703,49.1362305 136.3,51.1844273 139.3,54.0299871 C142.3,56.875547 143.8,61.0490347 143.8,66.6453024 L143.8,99.6537967 L133.3,99.6537967 L133.3,111.7 L169.5,111.7 L169.5,99.6537967 L157.8,99.6537967 L157.8,65.1276705 C157.8,60.4799228 157.2,56.401287 155.9,52.9866152 C154.6,49.5719434 152.9,46.7263835 150.6,44.5447876 C148.3,42.3631918 145.5,40.7507079 142.2,39.6124839 C138.9,38.47426 135.303616,37.5021215 131.305061,37.3856773 C122.800205,37.1380025 118.783739,38.4537298 110.305664,42.4816568 C107.140031,43.9856467 105.071476,45.1549761 104.1,45.989645 Z" id="Combined-Shape" fill="#FFFFFF" fill-rule="nonzero"></path>
    </g>
</svg>