<svg id="Layer_1" data-name="Layer 1" xmlns="http://www.w3.org/2000/svg" viewBox="0 0 197.9 224.67"><defs><style>.cls-1,.cls-2{fill:#fff;}.cls-2{stroke:#000;stroke-miterlimit:10;}</style></defs><title>hhlogo-concept</title><g id="Page-1"><g id="hhlogo-concept"><g id="Group"><g id="Shape"><polygon class="cls-1" points="15.7 201.67 22.9 201.67 22.9 204.17 20.8 204.17 20.8 221.47 22.9 221.47 22.9 223.97 15.7 223.97 15.7 221.47 17.9 221.47 17.9 213.47 5 213.47 5 221.47 7.2 221.47 7.2 223.97 0 223.97 0 221.47 2.1 221.47 2.1 204.17 0 204.17 0 201.67 7.2 201.67 7.2 204.17 5 204.17 5 210.97 17.9 210.97 17.9 204.17 15.7 204.17 15.7 201.67"/></g><g id="Shape-2" data-name="Shape"><path class="cls-1" d="M34.64,225.8a9.58,9.58,0,0,1-4.2-.9,10.33,10.33,0,0,1-3.4-2.5,10.48,10.48,0,0,1-2.3-3.8,14.23,14.23,0,0,1-.8-4.5,13.3,13.3,0,0,1,.8-4.5,12.52,12.52,0,0,1,2.2-3.7,9.4,9.4,0,0,1,3.4-2.5,10.36,10.36,0,0,1,4.3-.9,10,10,0,0,1,4.3.9,10.33,10.33,0,0,1,3.4,2.5,10.7,10.7,0,0,1,2.2,3.7,13.06,13.06,0,0,1,0,9,12.52,12.52,0,0,1-2.2,3.7,10.72,10.72,0,0,1-3.4,2.5A10.07,10.07,0,0,1,34.64,225.8Zm0-2.7a6.83,6.83,0,0,0,3.2-.7,7.49,7.49,0,0,0,2.4-1.9,6.9,6.9,0,0,0,1.5-2.8,9.67,9.67,0,0,0,.5-3.4,10.3,10.3,0,0,0-.6-3.5,7.67,7.67,0,0,0-1.7-2.9,6.42,6.42,0,0,0-2.5-1.8,7.53,7.53,0,0,0-2.9-.6,6.83,6.83,0,0,0-3.2.7,7.49,7.49,0,0,0-2.4,1.9,7.61,7.61,0,0,0-1.5,2.8,9.67,9.67,0,0,0-.5,3.4,10.64,10.64,0,0,0,.6,3.7,7.18,7.18,0,0,0,1.6,2.7,10.77,10.77,0,0,0,2.4,1.8A6.16,6.16,0,0,0,34.64,223.1Z" transform="translate(2.16 -1.43)"/></g><g id="Shape-3" data-name="Shape"><path class="cls-1" d="M48.54,203.1h9a8.63,8.63,0,0,1,2.8.4,7.56,7.56,0,0,1,2.2,1.1,4.5,4.5,0,0,1,1.4,1.9,7.08,7.08,0,0,1,.5,2.6,5.93,5.93,0,0,1-.5,2.3,6.22,6.22,0,0,1-1.4,1.9,6.75,6.75,0,0,1-2.2,1.3,8.21,8.21,0,0,1-2.8.5h-4v7.8h2.2v2.5h-7.2v-2.5h2.1V205.7h-2.1Zm5,2.5v7h4a6.05,6.05,0,0,0,1.5-.2,2.92,2.92,0,0,0,1.2-.7,4.44,4.44,0,0,0,.8-1.1,3.65,3.65,0,0,0,.3-1.5,3.25,3.25,0,0,0-1-2.6,4.71,4.71,0,0,0-3.2-.9Z" transform="translate(2.16 -1.43)"/></g><g id="Shape-4" data-name="Shape"><path class="cls-1" d="M67.24,203.1h9a8.63,8.63,0,0,1,2.8.4,7.56,7.56,0,0,1,2.2,1.1,4.5,4.5,0,0,1,1.4,1.9,7.08,7.08,0,0,1,.5,2.6,5.93,5.93,0,0,1-.5,2.3,6.22,6.22,0,0,1-1.4,1.9,6.75,6.75,0,0,1-2.2,1.3,8.21,8.21,0,0,1-2.8.5h-4v7.8h2.2v2.5h-7.2v-2.5h2.1V205.7h-2.1Zm5,2.5v7h4a6.05,6.05,0,0,0,1.5-.2,2.92,2.92,0,0,0,1.2-.7,4.44,4.44,0,0,0,.8-1.1,3.65,3.65,0,0,0,.3-1.5,3.25,3.25,0,0,0-1-2.6,4.71,4.71,0,0,0-3.2-.9Z" transform="translate(2.16 -1.43)"/></g><g id="Shape-5" data-name="Shape"><path class="cls-1" d="M96.94,207.2a4.71,4.71,0,0,0-1-1,6.12,6.12,0,0,0-1.2-.5,5.9,5.9,0,0,0-1.4-.2,6.45,6.45,0,0,0-2,.3,4.58,4.58,0,0,0-1.4.7,2.54,2.54,0,0,0-.8,1,2.66,2.66,0,0,0-.3,1.2,3.81,3.81,0,0,0,.3,1.6,2.84,2.84,0,0,0,.9,1,13.39,13.39,0,0,0,1.2.6c.4.1.8.3,1.2.4l3,1a13.32,13.32,0,0,1,2.4,1,5.86,5.86,0,0,1,1.7,1.3,9.91,9.91,0,0,1,1.1,1.7,5.27,5.27,0,0,1,.4,2.3,5.83,5.83,0,0,1-.6,2.6,5.26,5.26,0,0,1-1.6,2,9.46,9.46,0,0,1-2.4,1.4,10.07,10.07,0,0,1-3.1.5,8.47,8.47,0,0,1-2.9-.4,10.24,10.24,0,0,1-2.1-1,3.74,3.74,0,0,1-1.3-1.5,13,13,0,0,1-.8-1.7h-1.1V219h3.7a6,6,0,0,0,.3,2.3,2.66,2.66,0,0,0,1,1.1,5.23,5.23,0,0,0,1.5.7,5.84,5.84,0,0,0,1.9.2,9,9,0,0,0,1.8-.2,6.11,6.11,0,0,0,1.4-.7,3.13,3.13,0,0,0,.9-1.1,3.34,3.34,0,0,0,.3-1.5,2.41,2.41,0,0,0-.4-1.5,5.24,5.24,0,0,0-1-1.1,5.39,5.39,0,0,0-1.3-.7,11.22,11.22,0,0,0-1.3-.5l-3.2-.9a8.35,8.35,0,0,1-1.9-.8,5.66,5.66,0,0,1-1.5-1.2,6.93,6.93,0,0,1-1-1.7,7.32,7.32,0,0,1-.3-2.2,6.44,6.44,0,0,1,.5-2.4,4.81,4.81,0,0,1,1.5-2,6.18,6.18,0,0,1,2.4-1.3,10.23,10.23,0,0,1,3.2-.5,7.8,7.8,0,0,1,2.2.3,4.94,4.94,0,0,1,1.8.8,5.26,5.26,0,0,1,1.4,1.2,9.06,9.06,0,0,1,1.1,1.6h1.1v2.5h-3.6A5.59,5.59,0,0,0,96.94,207.2Z" transform="translate(2.16 -1.43)"/></g><g id="Shape-6" data-name="Shape"><path class="cls-1" d="M109.94,202.5h4.8v9.3h.1c.3-.3.6-.5.9-.8a3.88,3.88,0,0,1,1.1-.6,5.64,5.64,0,0,1,1.2-.4,5.7,5.7,0,0,1,1.3-.1,7.32,7.32,0,0,1,2.2.3,5.85,5.85,0,0,1,1.7,1,4.58,4.58,0,0,1,1.1,1.8,6.77,6.77,0,0,1,.4,2.6v7.3H127v2.5h-7.2v-2.5h2.1v-7a3.67,3.67,0,0,0-.9-2.7,3.42,3.42,0,0,0-2.6-.9,4.33,4.33,0,0,0-1.9.4,10.81,10.81,0,0,0-1.8,1.1v9h2.2v2.5h-7.2v-2.5H112V204.9h-2.1v-2.4Z" transform="translate(2.16 -1.43)"/></g><g id="Shape-7" data-name="Shape"><path class="cls-1" d="M129.54,217.8a8.81,8.81,0,0,1,.6-3.3,8.69,8.69,0,0,1,1.6-2.6,6.33,6.33,0,0,1,2.4-1.6,7.88,7.88,0,0,1,8.6,1.6,8.21,8.21,0,0,1,1.6,2.5,9.37,9.37,0,0,1,0,6.6,8.69,8.69,0,0,1-1.6,2.6,8.07,8.07,0,0,1-2.4,1.7,8.31,8.31,0,0,1-6.2,0,6.6,6.6,0,0,1-2.4-1.7,7.6,7.6,0,0,1-1.6-2.6A7.94,7.94,0,0,1,129.54,217.8Zm2.9,0a6.05,6.05,0,0,0,.4,2.4,7.68,7.68,0,0,0,1,1.8,3.27,3.27,0,0,0,1.5,1.1,5.84,5.84,0,0,0,1.8.4,4.06,4.06,0,0,0,1.9-.4,4.18,4.18,0,0,0,1.5-1.1,5.24,5.24,0,0,0,1-1.8,8.6,8.6,0,0,0,.4-2.4,6.9,6.9,0,0,0-.4-2.5,5.24,5.24,0,0,0-1-1.8,4.18,4.18,0,0,0-1.5-1.1,4.06,4.06,0,0,0-1.9-.4,3.66,3.66,0,0,0-1.8.4,4.18,4.18,0,0,0-1.5,1.1,5.24,5.24,0,0,0-1,1.8A6.25,6.25,0,0,0,132.44,217.8Z" transform="translate(2.16 -1.43)"/></g><g id="Shape-8" data-name="Shape"><path class="cls-1" d="M156.94,210.1h4.9v12.7h1.7v2.5h-4.4v-1.4a9.41,9.41,0,0,1-2.2,1.2,7.46,7.46,0,0,1-2.6.4,6.65,6.65,0,0,1-2.1-.3,4.35,4.35,0,0,1-1.6-1,4.45,4.45,0,0,1-1-1.8,9.47,9.47,0,0,1-.4-2.6v-7.3h-2.1V210H152v9.5a4.34,4.34,0,0,0,.8,2.7,2.59,2.59,0,0,0,2.3.9,6.8,6.8,0,0,0,1.9-.3,6.63,6.63,0,0,0,1.9-.9v-9.3h-2v-2.5Z" transform="translate(2.16 -1.43)"/></g><g id="Shape-9" data-name="Shape"><path class="cls-1" d="M176.14,213.2a2.34,2.34,0,0,0-.7-.7,3,3,0,0,0-1-.4,4.1,4.1,0,0,0-1.1-.1,3.75,3.75,0,0,0-1.1.1,2,2,0,0,0-.8.4l-.6.6a1.88,1.88,0,0,0-.2.8,1.66,1.66,0,0,0,.5,1.2,3.37,3.37,0,0,0,1.6.8l2.9,1a5.83,5.83,0,0,1,2.8,1.7,3.92,3.92,0,0,1,.9,2.6,4.06,4.06,0,0,1-.4,1.9,5.26,5.26,0,0,1-1.1,1.4,5.08,5.08,0,0,1-1.8.9,8.52,8.52,0,0,1-2.3.3,6,6,0,0,1-2.9-.6,5,5,0,0,1-1.7-1.5h-1.5v-2.5h3a2,2,0,0,0,.3,1.1,2.34,2.34,0,0,0,.7.7,3,3,0,0,0,1,.4,4.87,4.87,0,0,0,1.2.1,3.75,3.75,0,0,0,1.1-.1,1.88,1.88,0,0,0,.9-.4,1.9,1.9,0,0,0,.8-1.6,2.11,2.11,0,0,0-.5-1.3,4,4,0,0,0-1.6-.9l-2.9-1.1a5.8,5.8,0,0,1-2.6-1.6,4,4,0,0,1-.9-2.5,3.66,3.66,0,0,1,.4-1.8,4.51,4.51,0,0,1,1-1.4,4.61,4.61,0,0,1,1.7-.9,8,8,0,0,1,2.3-.3,5.44,5.44,0,0,1,2.7.5,4.89,4.89,0,0,1,2,1.6h1.4v2.5h-3C176.44,213.8,176.34,213.5,176.14,213.2Z" transform="translate(2.16 -1.43)"/></g><g id="Shape-10" data-name="Shape"><path class="cls-1" d="M184.84,218.1a4.87,4.87,0,0,0,.1,1.2c.1.4.2.7.3,1a4.25,4.25,0,0,0,1.7,2.2,5,5,0,0,0,2.7.7,8.52,8.52,0,0,0,2.3-.3,20.82,20.82,0,0,0,2.4-1l1.1,1.9a10.53,10.53,0,0,1-3,1.5,11.27,11.27,0,0,1-3.2.5,9.29,9.29,0,0,1-2.9-.5,7,7,0,0,1-2.3-1.5,6.19,6.19,0,0,1-1.5-2.5,9.56,9.56,0,0,1-.5-3.5,10.59,10.59,0,0,1,.5-3.1,6.77,6.77,0,0,1,1.4-2.5,7.23,7.23,0,0,1,2.2-1.7,7.45,7.45,0,0,1,3.1-.6,8.36,8.36,0,0,1,2.9.5,4.5,4.5,0,0,1,1.9,1.4,4.9,4.9,0,0,1,1.1,2,8.56,8.56,0,0,1,.5,2.3,4.48,4.48,0,0,1,.1,1.1v1.1h-10.9Zm4.3-6.1a4.67,4.67,0,0,0-1.7.3,2.55,2.55,0,0,0-1.2.8,5,5,0,0,0-.8,1.2,4.19,4.19,0,0,0-.4,1.6h7.9a4.15,4.15,0,0,0-.3-1.6,3.29,3.29,0,0,0-.7-1.3,2.84,2.84,0,0,0-1.1-.8A4.16,4.16,0,0,0,189.14,212Z" transform="translate(2.16 -1.43)"/></g></g><g id="Group-2" data-name="Group"><g id="Shape-11" data-name="Shape"><polygon class="cls-1" points="120.1 65.67 120.1 78.37 120.1 164.67 130.7 164.67 130.7 177.37 94.5 177.37 94.5 164.67 105.7 164.67 105.7 124.57 41.1 124.57 41.1 164.67 52.3 164.67 52.3 177.37 16.1 177.37 16.1 164.67 26.7 164.67 26.7 78.37 16.1 78.37 16.1 65.67 52.3 65.67 52.3 78.37 41.1 78.37 41.1 112.17 105.7 112.17 105.7 78.37 94.5 78.37 94.5 65.67 120.1 65.67"/></g><g id="Shape-12" data-name="Shape"><path class="cls-1" d="M171.64,132.13a34.27,34.27,0,0,0-1.9-12.14,22.29,22.29,0,0,0-5.3-8.44,22.74,22.74,0,0,0-8.4-4.93,36.3,36.3,0,0,0-10.89-2.23c-8.5-.25-12.52,1.07-21,5.1q-8.48,4-6.46,4.86v11.38a70,70,0,0,1,6.46-4.69,50.83,50.83,0,0,1,6.62-3.08,24.49,24.49,0,0,1,9.92-1.81A17.34,17.34,0,0,1,153.14,121c3,2.85,4.5,7,4.5,12.62v33h-10.5v12h36.2v-12h-11.7Z" transform="translate(2.16 -1.43)"/></g></g></g></g><polygon class="cls-1" points="165.68 53.63 98.03 20.14 32.31 53.58 24.15 37.54 97.92 0 173.66 37.5 165.68 53.63"/><path class="cls-2" d="M96.79,49.83" transform="translate(2.16 -1.43)"/></svg>