<?xml version="1.0" encoding="UTF-8"?>
<svg width="250px" height="177px" viewBox="0 0 250 177" version="1.1" xmlns="http://www.w3.org/2000/svg" xmlns:xlink="http://www.w3.org/1999/xlink">
    <!-- Generator: Sketch 47.1 (45422) - http://www.bohemiancoding.com/sketch -->
    <title>Group 2</title>
    <desc>Created with Sketch.</desc>
    <defs></defs>
    <g id="Page-1" stroke="none" stroke-width="1" fill="none" fill-rule="evenodd">
        <g id="Group-2" fill-rule="nonzero" fill="#421B00">
            <g id="Group" transform="translate(44.642857, 46.357143)">
                <polygon id="Shape" points="0 79.5573783 12.2925252 79.5573783 12.2925252 6.6456044 0 6.6456044 0 0 32.6107486 0 32.6107486 6.55066719 20.3182234 6.55066719 20.3182234 38.4495683 75.1774267 38.4495683 75.1774267 6.55066719 62.8849016 6.55066719 62.8849016 0 95.4956502 0 95.4956502 6.55066719 83.203125 6.55066719 83.203125 79.4624411 95.4956502 79.4624411 95.4956502 86.0131083 62.8849016 86.0131083 62.8849016 79.4624411 75.1774267 79.4624411 75.1774267 45.0951727 20.3182234 45.0951727 20.3182234 79.4624411 32.6107486 79.4624411 32.6107486 86.0131083 0 86.0131083"></polygon>
                <polyline id="Shape" points="92.75269 38.4495683 137.960737 38.4495683 137.960737 6.55066719 125.668212 6.55066719 125.668212 0 158.278961 0 158.278961 6.55066719 145.986435 6.55066719 145.986435 79.4624411 158.278961 79.4624411 158.278961 86.0131083 125.668212 86.0131083 125.668212 79.4624411 137.960737 79.4624411 137.960737 45.0951727 92.75269 45.0951727"></polyline>
            </g>
            <path d="M250,177 L0,177 L0,0 L250,0 L250,177 Z M7.73615635,169.693102 L242.263844,169.693102 L242.263844,7.30689842 L7.73615635,7.30689842 L7.73615635,169.693102 Z" id="Shape"></path>
        </g>
    </g>
</svg>