<?xml version="1.0" encoding="utf-8"?>
<!-- Generator: Adobe Illustrator 21.1.0, SVG Export Plug-In . SVG Version: 6.00 Build 0)  -->
<!DOCTYPE svg PUBLIC "-//W3C//DTD SVG 1.1//EN" "http://www.w3.org/Graphics/SVG/1.1/DTD/svg11.dtd">
<svg version="1.1" id="Layer_1" xmlns="http://www.w3.org/2000/svg" xmlns:xlink="http://www.w3.org/1999/xlink" x="0px" y="0px"
	 viewBox="0 0 300 300" style="enable-background:new 0 0 300 300;" xml:space="preserve">
<g>
	<g>
		<g>
			<g>
				<path d="M69,186.8h12.1V110H69v-7h32.1v6.9H89v33.6h54v-33.6h-12.1V103H163v6.9h-12.1v76.8H163v6.9h-32.1v-6.9H143v-36.2H89
					v36.2h12.1v6.9H69V186.8z"/>
			</g>
		</g>
	</g>
	<g>
		<g>
			<g>
				<path d="M160.3,143.5h44.5v-33.6h-12.1V103h32.1v6.9h-12.1v76.8h12.1v6.9h-32.1v-6.9h12.1v-36.2h-44.5"/>
			</g>
		</g>
	</g>
</g>
<g>
	<g>
		<path d="M269.7,240H24.1V55.9h245.6V240z M31.7,232.4h230.4V63.5H31.7V232.4z"/>
	</g>
</g>
</svg>
